<?xml version="1.0" standalone="no"?>
<!DOCTYPE svg PUBLIC "-//W3C//DTD SVG 20010904//EN"
 "http://www.w3.org/TR/2001/REC-SVG-20010904/DTD/svg10.dtd">
<svg version="1.0" xmlns="http://www.w3.org/2000/svg"
 width="300.000000pt" height="300.000000pt" viewBox="0 0 300.000000 300.000000"
 preserveAspectRatio="xMidYMid meet">
<metadata>
Created by potrace 1.14, written by Peter Selinger 2001-2017
</metadata>
<g transform="translate(0.000000,300.000000) scale(0.100000,-0.100000)"
fill="#000000" stroke="none">
<path d="M1446 2901 c-8 -9 -18 -28 -21 -44 -5 -18 -11 -25 -19 -19 -17 13
-90 -6 -103 -27 -10 -15 -8 -26 8 -57 10 -21 19 -48 19 -60 0 -14 10 -26 29
-35 l29 -14 -17 -44 c-31 -85 -118 -99 -157 -25 -10 21 -27 38 -38 40 -44 6
-149 -69 -155 -113 -16 -104 2 -154 117 -332 40 -62 71 -120 68 -128 -3 -7
-16 -18 -28 -23 -13 -5 -20 -9 -16 -9 4 -1 3 -14 -2 -30 -6 -23 -4 -33 11 -47
27 -24 24 -43 -8 -50 -16 -3 -35 -8 -43 -11 -8 -4 -18 -7 -22 -7 -13 -2 -48
-49 -48 -65 1 -71 44 -99 157 -102 51 -2 51 -2 56 -38 6 -49 1 -317 -6 -361
-13 -71 -40 -176 -54 -202 -7 -15 -12 -29 -11 -30 5 -7 -59 -128 -95 -183 -23
-33 -76 -97 -119 -142 -43 -45 -78 -83 -79 -85 -12 -82 -3 -140 25 -161 7 -5
4 -13 -9 -25 -39 -33 -54 -63 -45 -88 8 -20 4 -27 -23 -46 -64 -45 -74 -83
-32 -122 25 -24 26 -24 8 -60 -33 -70 13 -119 122 -130 181 -18 566 -24 869
-13 214 8 323 22 348 44 28 25 32 69 9 108 -11 19 -16 35 -11 35 17 0 50 43
50 64 -1 27 -17 48 -57 71 -30 17 -32 22 -27 55 5 32 2 40 -26 63 l-32 27 22
45 c20 42 22 62 11 133 -1 2 -34 37 -73 77 -40 41 -80 82 -87 91 -23 27 -106
168 -118 200 -6 16 -15 38 -19 49 -4 11 -8 22 -8 25 -1 3 -5 11 -9 18 -5 6 -5
12 -1 12 3 0 2 6 -3 13 -6 6 -14 30 -18 52 -5 22 -10 47 -12 55 -12 51 -15 81
-18 228 -4 220 -6 215 81 224 38 4 75 8 82 9 7 1 21 16 32 34 16 27 18 37 8
68 -11 35 -53 67 -90 67 -8 0 -23 6 -33 14 -18 13 -18 15 -2 30 9 10 18 20 18
24 8 41 4 55 -22 75 -27 19 -28 22 -14 44 9 13 13 23 10 23 -3 0 5 11 16 24
12 13 20 27 20 30 -1 4 8 16 19 28 11 12 20 28 20 35 0 7 3 13 8 13 10 0 79
138 90 182 16 59 -3 121 -48 162 -61 55 -140 67 -140 22 0 -16 -40 -53 -60
-57 -46 -9 -99 34 -113 93 -6 22 -3 28 15 34 28 8 38 22 38 52 0 13 7 30 15
38 41 42 -14 111 -75 94 -25 -7 -29 -4 -44 31 -10 21 -23 40 -29 40 -53 6 -79
3 -91 -10z"/>
</g>
</svg>
